<?xml version="1.0" encoding="utf-8"?>
<!-- Generator: Adobe Illustrator 23.0.1, SVG Export Plug-In . SVG Version: 6.00 Build 0)  -->
<svg version="1.1" id="Layer_1" xmlns="http://www.w3.org/2000/svg" xmlns:xlink="http://www.w3.org/1999/xlink" x="0px" y="0px"
	 viewBox="0 0 640 480" style="enable-background:new 0 0 640 480;" xml:space="preserve">
<style type="text/css">
	.st0{fill:#B79320;}
</style>
<g>
	<path class="st0" d="M395.1,424.8c0-0.8,0.1-1.5,0.1-2.3c0-49.1,0-98.3,0-147.4c0-3.2,0-3.2-3.2-3.2c-20.4,0-40.8,0-61.1,0
		c-1.7,0-2.7-0.5-3.5-2.1c-7.1-13.3-17.5-23.5-30.9-30.5c-0.4-0.2-1-0.4-1.2-0.7c-0.3-0.6-0.6-1.4-0.5-2c0-0.3,0.9-0.7,1.4-0.8
		c0.7-0.1,1.5,0,2.3,0c73.7,0,147.4,0,221.1,0c0.9,0,1.9,0,2.8,0c0.1-0.1,0.1-0.3,0.2-0.4c-0.6-0.4-1.1-0.9-1.7-1.3
		C454.5,189,388.2,143.7,322,98.5c-1.4-0.9-2.3-0.9-3.6,0c-31.5,21.5-63,43-94.5,64.5c-11.4,7.8-22.7,15.6-34,23.5
		c-0.6,0.4-1.2,0.8-2.2,1.4c0-1.1-0.1-1.8-0.1-2.6c0-23,0-46,0-69c0-2.8,0-2.8-2.8-2.8c-7.6,0-15.2,0-22.9,0c-3.7,0-3.5-0.5-3.5,3.4
		c0,29.2,0,58.5,0.1,87.7c0,2.3-0.7,3.6-2.6,4.8c-12.2,8.2-24.3,16.5-36.4,24.7c-0.6,0.4-1.2,0.9-1.7,1.8c0.8,0,1.7,0,2.5,0
		c42.3,0,84.7,0,127,0c33.8,0,62.8,22.5,71,55.1c10.6,41.7-17.7,83.9-60.2,89.7c-3.6,0.5-7.2,0.7-10.9,0.8c-21.2,0.1-42.4,0-63.6,0
		c-3.9,0-3.4-0.4-3.5,3.4c0,12.2,0,24.4,0,36.6c0,1.8-0.4,2.4-2.3,2.4c-11.4-0.1-22.8-0.1-34.2,0c-1.7,0-2.2-0.5-2.2-2.2
		c0-24.6,0.1-49.1,0-73.7c0-2.1,0.8-2.3,2.5-2.3c32.3,0,64.6,0,97,0c17.9,0,32.7-12,36.6-29.4c4.4-20-9.3-40.4-29.4-43.9
		c-2.8-0.5-5.6-0.7-8.4-0.7c-19.1-0.1-38.3,0-57.4,0c-58.5,0-117.1,0-175.6,0c-0.9,0-1.7,0-2.6,0c-0.1-0.1-0.1-0.3-0.2-0.4
		c0.7-0.5,1.4-1,2.1-1.5c38.1-26,76.3-52,114.5-78c1.5-1,2-2,2-3.8c-0.1-35.8,0-71.5,0-107.3c0-3,0-3,3-3c31.4,0,62.7,0,94.1,0
		c2.8,0,2.8,0,2.8,2.8c0,13,0,25.9,0,38.9c0,0.8,0,1.6,0,2.8c1.2-0.8,1.9-1.2,2.6-1.7c31.1-21.2,62.3-42.4,93.3-63.7
		c1.6-1.1,2.7-1,4.3,0.1c103.8,71,207.6,142,311.4,212.9c0.6,0.4,1.3,0.9,1.9,1.4c0,0.2-0.1,0.3-0.1,0.5c-0.9,0-1.8,0-2.8,0
		c-65.1,0-130.2,0-195.4-0.1c-0.7,0-1.4,0-2.1,0c-1.4-0.1-2.1,0.4-1.9,1.9c0.1,0.5,0,1.1,0,1.6c0,45.8,0,91.5,0,137.3
		c0,4.1,0,8.2,0,12.3C420.9,424.8,408,424.8,395.1,424.8z"/>
	<path class="st0" d="M338.4,153.1c3.6,0,7.1,0,10.7,0c1.4,0,1.9,0.4,1.9,1.9c-0.1,7.1,0,14.3,0,21.4c0,1.3-0.4,1.8-1.7,1.8
		c-7.2,0-14.4,0-21.6,0c-1.3,0-1.8-0.4-1.8-1.8c0-7.2,0.1-14.4,0-21.6c0-1.4,0.6-1.7,1.8-1.7C331.3,153.2,334.9,153.1,338.4,153.1z"
		/>
	<path class="st0" d="M338.5,214.3c-3.5,0-7-0.1-10.5,0c-1.4,0-2.1-0.3-2.1-1.9c0.1-7.1,0.1-14.3,0-21.4c0-1.3,0.4-1.8,1.8-1.8
		c7.2,0,14.4,0,21.6,0c1.4,0,1.8,0.5,1.8,1.8c0,7.1,0,14.3,0,21.4c0,1.4-0.5,1.9-1.9,1.9C345.6,214.3,342,214.3,338.5,214.3z"/>
	<path class="st0" d="M290,165.4c0-3.4,0.1-6.9,0-10.3c0-1.5,0.5-2,2-2c7.1,0.1,14.1,0.1,21.2,0c1.4,0,1.9,0.5,1.9,1.9
		c0,7.1,0,14.3,0,21.4c0,1.3-0.5,1.8-1.8,1.8c-7.1,0-14.3-0.1-21.4,0c-1.4,0-1.9-0.5-1.9-1.9C290,172.7,290,169,290,165.4z"/>
	<path class="st0" d="M290,201.5c0-3.4,0-6.7,0-10.1c0-1.5,0.4-2.2,2.1-2.2c7.1,0.1,14.1,0.1,21.2,0c1.5,0,1.9,0.5,1.9,1.9
		c0,7.1-0.1,14.1,0,21.2c0,1.5-0.6,2-2.1,2c-7-0.1-14-0.1-21,0c-1.7,0-2.1-0.6-2.1-2.2C290,208.6,290,205.1,290,201.5z"/>
</g>
</svg>
